<?xml version="1.0" encoding="utf-8"?>
<!-- Generator: Adobe Illustrator 26.5.3, SVG Export Plug-In . SVG Version: 6.00 Build 0)  -->
<svg version="1.1" xmlns="http://www.w3.org/2000/svg" xmlns:xlink="http://www.w3.org/1999/xlink" x="0px" y="0px"
	 viewBox="0 0 34 34" style="enable-background:new 0 0 34 34;" xml:space="preserve">
<style type="text/css">
	.st0{fill:#FFFFFF;}
</style>
<g id="background">
</g>
<g id="objects">
	<path class="st0" d="M33,17.1c0,8.8-7.2,16-16,16s-16-7.2-16-16s7.2-16,16-16S33,8.2,33,17.1z M26.9,11.1L26.9,11.1
		c0-0.6-0.5-1-1-1H8.2c-0.6,0-1,0.5-1,1v0c0,0.6,0.5,1,1,1h17.6C26.4,12.1,26.9,11.6,26.9,11.1z M26.9,17.1L26.9,17.1
		c0-0.6-0.5-1-1-1H8.2c-0.6,0-1,0.5-1,1v0c0,0.6,0.5,1,1,1h17.6C26.4,18.1,26.9,17.6,26.9,17.1z M26.9,23.1L26.9,23.1
		c0-0.6-0.5-1-1-1H8.2c-0.6,0-1,0.5-1,1v0c0,0.6,0.5,1,1,1h17.6C26.4,24.1,26.9,23.6,26.9,23.1z"/>
</g>
</svg>
