<?xml version="1.0" encoding="UTF-8"?> <!-- Generator: Adobe Illustrator 24.0.3, SVG Export Plug-In . SVG Version: 6.00 Build 0) --> <svg xmlns="http://www.w3.org/2000/svg" xmlns:xlink="http://www.w3.org/1999/xlink" version="1.1" id="Layer_1" x="0px" y="0px" viewBox="0 0 306.3 137.6" style="enable-background:new 0 0 306.3 137.6;" xml:space="preserve"> <style type="text/css"> .st0{fill:#14283F;} .st1{fill:#F5067B;} </style> <g> <path class="st0" d="M125.6,22.3h12.7v2.6h-10v6.3h9.3v2.6h-9.3v8.7h-2.7V22.3z"></path> <path class="st0" d="M140.7,35.7c0-1,0.2-1.9,0.6-2.8c0.4-0.9,0.9-1.6,1.5-2.3c0.6-0.6,1.4-1.2,2.3-1.5c0.9-0.4,1.8-0.6,2.8-0.6 s2,0.2,2.8,0.6c0.9,0.4,1.6,0.9,2.3,1.5c0.6,0.6,1.2,1.4,1.5,2.3c0.4,0.9,0.6,1.8,0.6,2.8c0,1-0.2,1.9-0.6,2.8 c-0.4,0.9-0.9,1.6-1.5,2.3c-0.6,0.6-1.4,1.1-2.3,1.5s-1.8,0.6-2.8,0.6s-2-0.2-2.8-0.6s-1.6-0.9-2.3-1.5c-0.6-0.6-1.2-1.4-1.5-2.3 C140.9,37.7,140.7,36.7,140.7,35.7z M143.4,35.7c0,0.7,0.1,1.3,0.3,1.9c0.2,0.6,0.5,1.1,0.9,1.5s0.8,0.7,1.4,1s1.2,0.4,1.9,0.4 s1.3-0.1,1.9-0.4c0.6-0.2,1-0.6,1.4-1s0.7-0.9,0.9-1.5c0.2-0.6,0.3-1.2,0.3-1.9c0-0.7-0.1-1.3-0.3-1.9c-0.2-0.6-0.5-1.1-0.9-1.5 s-0.8-0.7-1.4-1c-0.6-0.2-1.2-0.4-1.9-0.4s-1.3,0.1-1.9,0.4c-0.6,0.2-1,0.6-1.4,1s-0.7,0.9-0.9,1.5 C143.5,34.4,143.4,35.1,143.4,35.7z"></path> <path class="st0" d="M158.3,29h2.6v2.1h0.1c0.3-0.7,0.9-1.3,1.7-1.8c0.8-0.4,1.7-0.7,2.8-0.7c0.6,0,1.3,0.1,1.9,0.3 c0.6,0.2,1.1,0.5,1.6,0.9c0.4,0.4,0.8,1,1.1,1.6c0.3,0.7,0.4,1.4,0.4,2.3v8.7h-2.6v-8c0-0.6-0.1-1.2-0.3-1.6 c-0.2-0.4-0.4-0.8-0.7-1.1c-0.3-0.3-0.6-0.5-1-0.6c-0.4-0.1-0.8-0.2-1.2-0.2c-0.5,0-1,0.1-1.5,0.3c-0.5,0.2-0.9,0.4-1.2,0.8 c-0.3,0.4-0.6,0.8-0.8,1.4c-0.2,0.6-0.3,1.2-0.3,2v7h-2.6V29z"></path> <path class="st0" d="M187.8,42.5h-2.6v-1.9h-0.1c-0.5,0.7-1.2,1.3-2,1.7c-0.9,0.4-1.8,0.6-2.7,0.6c-1,0-2-0.2-2.8-0.5 c-0.8-0.4-1.6-0.9-2.2-1.5c-0.6-0.6-1.1-1.4-1.4-2.3s-0.5-1.8-0.5-2.8c0-1,0.2-1.9,0.5-2.8c0.3-0.9,0.8-1.6,1.4-2.3 c0.6-0.6,1.3-1.1,2.2-1.5c0.8-0.4,1.8-0.5,2.8-0.5c1,0,1.9,0.2,2.7,0.6c0.9,0.4,1.5,1,2,1.7h0.1v-10h2.6V42.5z M180.7,40.5 c0.7,0,1.3-0.1,1.9-0.4s1-0.6,1.4-1s0.7-0.9,0.9-1.5c0.2-0.6,0.3-1.2,0.3-1.9c0-0.7-0.1-1.3-0.3-1.9c-0.2-0.6-0.5-1.1-0.9-1.5 s-0.8-0.7-1.4-1c-0.6-0.2-1.2-0.4-1.9-0.4s-1.3,0.1-1.9,0.4c-0.6,0.2-1,0.6-1.4,1s-0.7,0.9-0.9,1.5c-0.2,0.6-0.3,1.2-0.3,1.9 c0,0.7,0.1,1.3,0.3,1.9c0.2,0.6,0.5,1.1,0.9,1.5s0.8,0.7,1.4,1S180.1,40.5,180.7,40.5z"></path> <path class="st0" d="M191.7,30.6c0.7-0.7,1.6-1.2,2.5-1.5c1-0.3,1.9-0.5,2.9-0.5c1,0,1.8,0.1,2.6,0.4c0.7,0.2,1.3,0.6,1.8,1 c0.5,0.4,0.8,0.9,1,1.4c0.2,0.5,0.3,1.1,0.3,1.7v6.9c0,0.5,0,0.9,0,1.3s0,0.8,0.1,1.1h-2.3c-0.1-0.7-0.1-1.4-0.1-2.1h-0.1 c-0.6,0.9-1.2,1.5-2,1.9c-0.8,0.4-1.7,0.5-2.7,0.5c-0.6,0-1.2-0.1-1.8-0.3c-0.6-0.2-1.1-0.4-1.5-0.8c-0.4-0.3-0.8-0.8-1-1.3 c-0.2-0.5-0.4-1.1-0.4-1.8c0-0.9,0.2-1.6,0.6-2.2c0.4-0.6,0.9-1.1,1.6-1.4c0.7-0.4,1.5-0.6,2.4-0.8c0.9-0.2,1.9-0.2,2.9-0.2h1.9 v-0.6c0-0.3-0.1-0.7-0.2-1c-0.1-0.3-0.3-0.7-0.6-0.9c-0.3-0.3-0.6-0.5-1-0.7c-0.4-0.2-0.9-0.2-1.4-0.2c-0.5,0-0.9,0-1.3,0.1 c-0.4,0.1-0.7,0.2-1,0.4c-0.3,0.1-0.6,0.3-0.8,0.5s-0.5,0.4-0.7,0.5L191.7,30.6z M199,36c-0.6,0-1.2,0-1.9,0.1 c-0.6,0.1-1.2,0.2-1.7,0.4c-0.5,0.2-1,0.5-1.3,0.8c-0.3,0.3-0.5,0.8-0.5,1.3c0,0.8,0.3,1.3,0.8,1.7s1.2,0.5,2.1,0.5 c0.7,0,1.3-0.1,1.8-0.4c0.5-0.2,0.9-0.5,1.2-0.9c0.3-0.4,0.5-0.8,0.7-1.3c0.1-0.5,0.2-0.9,0.2-1.4V36H199z"></path> <path class="st0" d="M213.7,31.2h-3.7v6.1c0,0.4,0,0.8,0,1.1c0,0.4,0.1,0.7,0.2,1c0.1,0.3,0.3,0.5,0.6,0.7c0.3,0.2,0.6,0.3,1.1,0.3 c0.3,0,0.6,0,0.9-0.1c0.3-0.1,0.6-0.2,0.9-0.3v2.3c-0.3,0.2-0.7,0.3-1.2,0.4c-0.5,0.1-0.9,0.1-1.1,0.1c-1,0-1.8-0.1-2.3-0.4 s-0.9-0.6-1.2-1.1c-0.3-0.4-0.4-0.9-0.5-1.5s-0.1-1.1-0.1-1.6v-7.1h-3V29h3v-3.8h2.6V29h3.7V31.2z"></path> <path class="st0" d="M216.7,24.1c0-0.5,0.2-1,0.6-1.3c0.4-0.4,0.8-0.6,1.3-0.6c0.5,0,1,0.2,1.3,0.6c0.4,0.4,0.6,0.8,0.6,1.3 c0,0.5-0.2,1-0.6,1.3c-0.4,0.4-0.8,0.6-1.3,0.6c-0.5,0-1-0.2-1.3-0.6C216.8,25.1,216.7,24.6,216.7,24.1z M217.3,29h2.6v13.5h-2.6 V29z"></path> <path class="st0" d="M223.3,35.7c0-1,0.2-1.9,0.6-2.8c0.4-0.9,0.9-1.6,1.5-2.3c0.6-0.6,1.4-1.2,2.3-1.5c0.9-0.4,1.8-0.6,2.8-0.6 s2,0.2,2.8,0.6c0.9,0.4,1.6,0.9,2.3,1.5c0.6,0.6,1.2,1.4,1.5,2.3c0.4,0.9,0.6,1.8,0.6,2.8c0,1-0.2,1.9-0.6,2.8 c-0.4,0.9-0.9,1.6-1.5,2.3c-0.6,0.6-1.4,1.1-2.3,1.5s-1.8,0.6-2.8,0.6s-2-0.2-2.8-0.6s-1.6-0.9-2.3-1.5c-0.6-0.6-1.2-1.4-1.5-2.3 C223.4,37.7,223.3,36.7,223.3,35.7z M226,35.7c0,0.7,0.1,1.3,0.3,1.9c0.2,0.6,0.5,1.1,0.9,1.5s0.8,0.7,1.4,1s1.2,0.4,1.9,0.4 s1.3-0.1,1.9-0.4s1-0.6,1.4-1s0.7-0.9,0.9-1.5c0.2-0.6,0.3-1.2,0.3-1.9c0-0.7-0.1-1.3-0.3-1.9c-0.2-0.6-0.5-1.1-0.9-1.5 s-0.8-0.7-1.4-1c-0.6-0.2-1.2-0.4-1.9-0.4s-1.3,0.1-1.9,0.4c-0.6,0.2-1,0.6-1.4,1s-0.7,0.9-0.9,1.5C226.1,34.4,226,35.1,226,35.7z"></path> <path class="st0" d="M240.9,29h2.6v2.1h0.1c0.3-0.7,0.9-1.3,1.7-1.8c0.8-0.4,1.7-0.7,2.8-0.7c0.6,0,1.3,0.1,1.9,0.3 c0.6,0.2,1.1,0.5,1.6,0.9c0.4,0.4,0.8,1,1.1,1.6c0.3,0.7,0.4,1.4,0.4,2.3v8.7h-2.6v-8c0-0.6-0.1-1.2-0.3-1.6 c-0.2-0.4-0.4-0.8-0.7-1.1c-0.3-0.3-0.6-0.5-1-0.6c-0.4-0.1-0.8-0.2-1.2-0.2c-0.5,0-1,0.1-1.5,0.3c-0.5,0.2-0.9,0.4-1.2,0.8 c-0.3,0.4-0.6,0.8-0.8,1.4c-0.2,0.6-0.3,1.2-0.3,2v7h-2.6V29z"></path> </g> <g> <path class="st0" d="M134.6,66c-0.5-0.5-1-0.9-1.5-1.1c-0.5-0.3-1.1-0.4-1.9-0.4c-0.7,0-1.3,0.1-1.8,0.4c-0.5,0.3-1,0.6-1.3,1.1 c-0.4,0.4-0.6,1-0.8,1.5c-0.2,0.6-0.3,1.2-0.3,1.8c0,0.6,0.1,1.2,0.3,1.8c0.2,0.6,0.5,1.1,0.9,1.5c0.4,0.4,0.8,0.7,1.4,1 c0.5,0.2,1.1,0.4,1.8,0.4c0.7,0,1.3-0.1,1.9-0.4c0.5-0.3,1-0.6,1.4-1.1l1.8,1.8c-0.7,0.7-1.4,1.3-2.3,1.6c-0.9,0.3-1.8,0.5-2.8,0.5 c-1,0-2-0.2-2.9-0.5c-0.9-0.3-1.6-0.8-2.2-1.4c-0.6-0.6-1.1-1.4-1.5-2.2c-0.3-0.9-0.5-1.8-0.5-2.9c0-1,0.2-2,0.5-2.9 c0.3-0.9,0.8-1.6,1.4-2.3c0.6-0.6,1.4-1.1,2.2-1.5c0.9-0.4,1.8-0.5,2.9-0.5c1,0,1.9,0.2,2.8,0.5c0.9,0.4,1.7,0.9,2.4,1.6L134.6,66z "></path> <path class="st0" d="M138.8,64.1c0.7-0.7,1.6-1.2,2.5-1.5c1-0.3,1.9-0.5,2.9-0.5c1,0,1.8,0.1,2.6,0.4c0.7,0.2,1.3,0.6,1.8,1 c0.5,0.4,0.8,0.9,1,1.4c0.2,0.5,0.3,1.1,0.3,1.7v6.9c0,0.5,0,0.9,0,1.3s0,0.8,0.1,1.1h-2.3c-0.1-0.7-0.1-1.4-0.1-2.1h-0.1 c-0.6,0.9-1.2,1.5-2,1.9c-0.8,0.4-1.7,0.5-2.7,0.5c-0.6,0-1.2-0.1-1.8-0.3c-0.6-0.2-1.1-0.4-1.5-0.8c-0.4-0.3-0.8-0.8-1-1.3 c-0.2-0.5-0.4-1.1-0.4-1.8c0-0.9,0.2-1.6,0.6-2.2c0.4-0.6,0.9-1.1,1.6-1.4c0.7-0.4,1.5-0.6,2.4-0.8c0.9-0.2,1.9-0.2,2.9-0.2h1.9V67 c0-0.3-0.1-0.7-0.2-1c-0.1-0.3-0.3-0.7-0.6-0.9c-0.3-0.3-0.6-0.5-1-0.7c-0.4-0.2-0.9-0.2-1.4-0.2c-0.5,0-0.9,0-1.3,0.1 c-0.4,0.1-0.7,0.2-1,0.4c-0.3,0.1-0.6,0.3-0.8,0.5s-0.5,0.4-0.7,0.5L138.8,64.1z M146,69.5c-0.6,0-1.2,0-1.9,0.1 c-0.6,0.1-1.2,0.2-1.7,0.4c-0.5,0.2-1,0.5-1.3,0.8c-0.3,0.3-0.5,0.8-0.5,1.3c0,0.8,0.3,1.3,0.8,1.7s1.2,0.5,2.1,0.5 c0.7,0,1.3-0.1,1.8-0.4c0.5-0.2,0.9-0.5,1.2-0.9c0.3-0.4,0.5-0.8,0.7-1.3c0.1-0.5,0.2-0.9,0.2-1.4v-0.9H146z"></path> <path class="st0" d="M153.5,62.4h2.6v2.1h0.1c0.3-0.7,0.9-1.3,1.7-1.8c0.8-0.4,1.7-0.7,2.8-0.7c0.6,0,1.3,0.1,1.9,0.3 c0.6,0.2,1.1,0.5,1.6,0.9c0.4,0.4,0.8,1,1.1,1.6c0.3,0.7,0.4,1.4,0.4,2.3V76H163v-8c0-0.6-0.1-1.2-0.3-1.6 c-0.2-0.4-0.4-0.8-0.7-1.1c-0.3-0.3-0.6-0.5-1-0.6c-0.4-0.1-0.8-0.2-1.2-0.2c-0.5,0-1,0.1-1.5,0.3c-0.5,0.2-0.9,0.4-1.2,0.8 c-0.3,0.4-0.6,0.8-0.8,1.4c-0.2,0.6-0.3,1.2-0.3,2v7h-2.6V62.4z"></path> <path class="st0" d="M179.1,66c-0.5-0.5-1-0.9-1.5-1.1c-0.5-0.3-1.1-0.4-1.9-0.4c-0.7,0-1.3,0.1-1.8,0.4c-0.5,0.3-1,0.6-1.3,1.1 s-0.6,1-0.8,1.5c-0.2,0.6-0.3,1.2-0.3,1.8c0,0.6,0.1,1.2,0.3,1.8c0.2,0.6,0.5,1.1,0.9,1.5c0.4,0.4,0.8,0.7,1.4,1 c0.5,0.2,1.1,0.4,1.8,0.4c0.7,0,1.3-0.1,1.9-0.4c0.5-0.3,1-0.6,1.4-1.1l1.8,1.8c-0.7,0.7-1.4,1.3-2.3,1.6c-0.9,0.3-1.8,0.5-2.8,0.5 c-1,0-2-0.2-2.9-0.5s-1.6-0.8-2.2-1.4c-0.6-0.6-1.1-1.4-1.5-2.2c-0.3-0.9-0.5-1.8-0.5-2.9c0-1,0.2-2,0.5-2.9 c0.3-0.9,0.8-1.6,1.4-2.3c0.6-0.6,1.4-1.1,2.2-1.5c0.9-0.4,1.8-0.5,2.9-0.5c1,0,1.9,0.2,2.8,0.5c0.9,0.4,1.7,0.9,2.4,1.6L179.1,66z "></path> <path class="st0" d="M185.1,70.2c0,0.6,0.1,1.1,0.4,1.6c0.3,0.5,0.6,0.9,1,1.2c0.4,0.3,0.9,0.6,1.5,0.8s1.1,0.3,1.7,0.3 c0.8,0,1.5-0.2,2.1-0.6s1.1-0.9,1.6-1.5l1.9,1.5c-1.4,1.8-3.4,2.8-6,2.8c-1.1,0-2-0.2-2.9-0.5c-0.9-0.4-1.6-0.9-2.2-1.5 c-0.6-0.6-1.1-1.4-1.4-2.3c-0.3-0.9-0.5-1.8-0.5-2.8c0-1,0.2-1.9,0.5-2.8c0.4-0.9,0.8-1.6,1.5-2.3c0.6-0.6,1.4-1.1,2.2-1.5 c0.9-0.4,1.8-0.5,2.8-0.5c1.2,0,2.2,0.2,3,0.6c0.8,0.4,1.5,1,2,1.6c0.5,0.7,0.9,1.4,1.2,2.3c0.2,0.8,0.4,1.7,0.4,2.6v0.9H185.1z M193.3,68.1c0-0.6-0.1-1.1-0.3-1.6c-0.2-0.5-0.4-0.9-0.7-1.2s-0.7-0.6-1.2-0.8c-0.5-0.2-1.1-0.3-1.7-0.3c-0.6,0-1.2,0.1-1.7,0.4 c-0.5,0.2-1,0.5-1.3,0.9c-0.4,0.4-0.6,0.8-0.8,1.3c-0.2,0.5-0.3,0.9-0.3,1.4H193.3z"></path> <path class="st0" d="M199.1,62.4h2.6v2.1h0.1c0.2-0.4,0.4-0.7,0.7-1c0.3-0.3,0.6-0.5,1-0.8c0.4-0.2,0.7-0.4,1.2-0.5 s0.8-0.2,1.3-0.2s0.8,0.1,1.1,0.2l-0.1,2.8c-0.2-0.1-0.4-0.1-0.6-0.1s-0.4-0.1-0.6-0.1c-1.3,0-2.2,0.4-2.9,1.1 c-0.7,0.7-1,1.8-1,3.3V76h-2.6V62.4z"></path> <path class="st0" d="M231.2,76h-2.6V74h-0.1c-0.5,0.7-1.2,1.3-2,1.7c-0.9,0.4-1.8,0.6-2.7,0.6c-1,0-2-0.2-2.8-0.5 c-0.8-0.4-1.6-0.9-2.2-1.5c-0.6-0.6-1.1-1.4-1.4-2.3c-0.3-0.9-0.5-1.8-0.5-2.8c0-1,0.2-1.9,0.5-2.8c0.3-0.9,0.8-1.6,1.4-2.3 c0.6-0.6,1.3-1.1,2.2-1.5c0.8-0.4,1.8-0.5,2.8-0.5c1,0,1.9,0.2,2.7,0.6c0.9,0.4,1.5,1,2,1.7h0.1v-10h2.6V76z M224.1,73.9 c0.7,0,1.3-0.1,1.9-0.4s1-0.6,1.4-1s0.7-0.9,0.9-1.5c0.2-0.6,0.3-1.2,0.3-1.9c0-0.7-0.1-1.3-0.3-1.9c-0.2-0.6-0.5-1.1-0.9-1.5 s-0.8-0.7-1.4-1c-0.6-0.2-1.2-0.4-1.9-0.4s-1.3,0.1-1.9,0.4c-0.6,0.2-1,0.6-1.4,1s-0.7,0.9-0.9,1.5c-0.2,0.6-0.3,1.2-0.3,1.9 c0,0.7,0.1,1.3,0.3,1.9c0.2,0.6,0.5,1.1,0.9,1.5s0.8,0.7,1.4,1S223.5,73.9,224.1,73.9z"></path> <path class="st0" d="M247.1,76h-2.6v-2.1h-0.1c-0.3,0.7-0.9,1.3-1.7,1.8c-0.8,0.4-1.7,0.7-2.8,0.7c-0.7,0-1.3-0.1-1.9-0.3 c-0.6-0.2-1.1-0.5-1.6-0.9c-0.4-0.4-0.8-1-1.1-1.6c-0.3-0.7-0.4-1.4-0.4-2.3v-8.7h2.6v8c0,0.6,0.1,1.2,0.3,1.6s0.4,0.8,0.7,1.1 c0.3,0.3,0.6,0.5,1,0.6c0.4,0.1,0.8,0.2,1.2,0.2c0.5,0,1-0.1,1.5-0.3c0.5-0.2,0.9-0.4,1.2-0.8c0.3-0.4,0.6-0.8,0.8-1.4 c0.2-0.6,0.3-1.2,0.3-2v-7h2.6V76z"></path> <path class="st0" d="M266.1,65.8c-0.3-0.4-0.7-0.7-1.1-1c-0.4-0.3-1-0.4-1.6-0.4c-0.6,0-1.1,0.1-1.6,0.4c-0.4,0.3-0.7,0.6-0.7,1.1 c0,0.4,0.1,0.7,0.4,1c0.3,0.2,0.6,0.4,0.9,0.6c0.4,0.2,0.7,0.3,1.1,0.3c0.4,0.1,0.7,0.1,1,0.2c0.6,0.1,1.1,0.3,1.6,0.5 c0.5,0.2,0.9,0.4,1.3,0.7s0.6,0.7,0.8,1.1c0.2,0.4,0.3,1,0.3,1.6c0,0.8-0.2,1.4-0.5,2c-0.3,0.5-0.7,1-1.3,1.3 c-0.5,0.3-1.1,0.6-1.8,0.7s-1.3,0.2-2,0.2c-1.1,0-2.1-0.2-3-0.5c-0.8-0.3-1.6-1-2.3-1.9l1.9-1.6c0.4,0.4,0.9,0.8,1.4,1.1 c0.5,0.3,1.1,0.5,1.9,0.5c0.3,0,0.7,0,1-0.1c0.3-0.1,0.6-0.2,0.9-0.3c0.3-0.1,0.5-0.3,0.6-0.5c0.2-0.2,0.2-0.5,0.2-0.8 c0-0.4-0.1-0.7-0.4-0.9c-0.2-0.2-0.5-0.4-0.9-0.6c-0.3-0.1-0.7-0.3-1.1-0.3c-0.4-0.1-0.7-0.2-1-0.2c-0.6-0.1-1.1-0.3-1.6-0.5 s-0.9-0.4-1.3-0.7s-0.7-0.6-0.9-1.1c-0.2-0.4-0.3-1-0.3-1.6c0-0.7,0.1-1.3,0.4-1.8c0.3-0.5,0.7-1,1.2-1.3s1-0.6,1.7-0.8 s1.2-0.3,1.9-0.3c0.9,0,1.8,0.2,2.6,0.5c0.8,0.3,1.5,0.9,2,1.7L266.1,65.8z"></path> <path class="st0" d="M273.5,70.2c0,0.6,0.1,1.1,0.4,1.6c0.3,0.5,0.6,0.9,1,1.2c0.4,0.3,0.9,0.6,1.5,0.8s1.1,0.3,1.7,0.3 c0.8,0,1.5-0.2,2.1-0.6s1.1-0.9,1.6-1.5l1.9,1.5c-1.4,1.8-3.4,2.8-6,2.8c-1.1,0-2-0.2-2.9-0.5c-0.9-0.4-1.6-0.9-2.2-1.5 c-0.6-0.6-1.1-1.4-1.4-2.3c-0.3-0.9-0.5-1.8-0.5-2.8c0-1,0.2-1.9,0.5-2.8c0.4-0.9,0.8-1.6,1.5-2.3c0.6-0.6,1.4-1.1,2.2-1.5 c0.9-0.4,1.8-0.5,2.8-0.5c1.2,0,2.2,0.2,3,0.6c0.8,0.4,1.5,1,2,1.6c0.5,0.7,0.9,1.4,1.2,2.3c0.2,0.8,0.4,1.7,0.4,2.6v0.9H273.5z M281.6,68.1c0-0.6-0.1-1.1-0.3-1.6c-0.2-0.5-0.4-0.9-0.7-1.2s-0.7-0.6-1.2-0.8c-0.5-0.2-1.1-0.3-1.7-0.3c-0.6,0-1.2,0.1-1.7,0.4 c-0.5,0.2-1,0.5-1.3,0.9c-0.4,0.4-0.6,0.8-0.8,1.3c-0.2,0.5-0.3,0.9-0.3,1.4H281.6z"></path> <path class="st0" d="M287.1,57.6c0-0.5,0.2-1,0.6-1.3c0.4-0.4,0.8-0.6,1.3-0.6c0.5,0,1,0.2,1.3,0.6c0.4,0.4,0.6,0.8,0.6,1.3 c0,0.5-0.2,1-0.6,1.3c-0.4,0.4-0.8,0.6-1.3,0.6c-0.5,0-1-0.2-1.3-0.6C287.3,58.5,287.1,58.1,287.1,57.6z M287.7,62.4h2.6V76h-2.6 V62.4z"></path> <path class="st0" d="M294.3,62.4h2.6v2.1h0.1c0.3-0.7,0.9-1.3,1.7-1.8c0.8-0.4,1.7-0.7,2.8-0.7c0.6,0,1.3,0.1,1.9,0.3 c0.6,0.2,1.1,0.5,1.6,0.9c0.4,0.4,0.8,1,1.1,1.6c0.3,0.7,0.4,1.4,0.4,2.3V76h-2.6v-8c0-0.6-0.1-1.2-0.3-1.6 c-0.2-0.4-0.4-0.8-0.7-1.1c-0.3-0.3-0.6-0.5-1-0.6c-0.4-0.1-0.8-0.2-1.2-0.2c-0.5,0-1,0.1-1.5,0.3c-0.5,0.2-0.9,0.4-1.2,0.8 c-0.3,0.4-0.6,0.8-0.8,1.4c-0.2,0.6-0.3,1.2-0.3,2v7h-2.6V62.4z"></path> </g> <g> <path class="st0" d="M138.5,110.3h-2.6v-1.9h-0.1c-0.5,0.7-1.2,1.3-2,1.7c-0.9,0.4-1.8,0.6-2.7,0.6c-1,0-2-0.2-2.8-0.5 c-0.8-0.4-1.6-0.9-2.2-1.5c-0.6-0.6-1.1-1.4-1.4-2.3c-0.3-0.9-0.5-1.8-0.5-2.8c0-1,0.2-1.9,0.5-2.8c0.3-0.9,0.8-1.6,1.4-2.3 c0.6-0.6,1.3-1.1,2.2-1.5c0.8-0.4,1.8-0.5,2.8-0.5c1,0,1.9,0.2,2.7,0.6c0.9,0.4,1.5,1,2,1.7h0.1v-10h2.6V110.3z M131.5,108.2 c0.7,0,1.3-0.1,1.9-0.4c0.6-0.2,1-0.6,1.4-1c0.4-0.4,0.7-0.9,0.9-1.5s0.3-1.2,0.3-1.9c0-0.7-0.1-1.3-0.3-1.9 c-0.2-0.6-0.5-1.1-0.9-1.5s-0.8-0.7-1.4-1c-0.6-0.2-1.2-0.4-1.9-0.4s-1.3,0.1-1.9,0.4c-0.6,0.2-1,0.6-1.4,1 c-0.4,0.4-0.7,0.9-0.9,1.5c-0.2,0.6-0.3,1.2-0.3,1.9c0,0.7,0.1,1.3,0.3,1.9c0.2,0.6,0.5,1.1,0.9,1.5c0.4,0.4,0.8,0.7,1.4,1 C130.2,108.1,130.8,108.2,131.5,108.2z"></path> <path class="st0" d="M154.4,110.3h-2.6v-2.1h-0.1c-0.3,0.7-0.9,1.3-1.7,1.8c-0.8,0.4-1.7,0.7-2.8,0.7c-0.7,0-1.3-0.1-1.9-0.3 c-0.6-0.2-1.1-0.5-1.6-0.9c-0.4-0.4-0.8-1-1.1-1.6c-0.3-0.7-0.4-1.4-0.4-2.3v-8.7h2.6v8c0,0.6,0.1,1.2,0.3,1.6 c0.2,0.4,0.4,0.8,0.7,1.1c0.3,0.3,0.6,0.5,1,0.6c0.4,0.1,0.8,0.2,1.2,0.2c0.5,0,1-0.1,1.5-0.3c0.5-0.2,0.9-0.4,1.2-0.8 c0.3-0.4,0.6-0.8,0.8-1.4s0.3-1.2,0.3-2v-7h2.6V110.3z"></path> <path class="st0" d="M187.8,110.3h-11.7c-1.4,0-2.8-0.3-4.1-0.8c-1.3-0.5-2.4-1.2-3.3-2.1c-1-0.9-1.7-2-2.3-3.3 c-0.6-1.3-0.8-2.7-0.8-4.2c0-1.5,0.3-2.9,0.8-4.1c0.5-1.3,1.3-2.4,2.2-3.3c0.9-0.9,2-1.7,3.3-2.2c1.3-0.5,2.6-0.8,4.1-0.8 c1.4,0,2.8,0.3,4,0.8c1.2,0.5,2.3,1.2,3.3,2.1c0.9,0.9,1.7,2,2.2,3.2c0.5,1.2,0.8,2.6,0.8,4c0,0.9-0.1,1.7-0.3,2.5 c-0.2,0.8-0.5,1.6-0.9,2.3c-0.4,0.7-0.9,1.4-1.5,1.9c-0.6,0.6-1.2,1-2,1.4v0.1h6V110.3z M176,107.7c1.1,0,2.1-0.2,3-0.6 c0.9-0.4,1.7-1,2.4-1.7c0.7-0.7,1.2-1.6,1.5-2.5c0.4-1,0.5-2,0.5-3.1c0-1.1-0.2-2.1-0.6-3c-0.4-0.9-0.9-1.7-1.6-2.4 c-0.7-0.7-1.5-1.2-2.4-1.6c-0.9-0.4-1.9-0.6-3-0.6c-1.1,0-2.1,0.2-3,0.6c-0.9,0.4-1.7,0.9-2.4,1.6c-0.7,0.7-1.2,1.5-1.6,2.4 c-0.4,0.9-0.6,1.9-0.6,3c0,1.1,0.2,2.1,0.5,3.1s0.9,1.8,1.5,2.5c0.7,0.7,1.4,1.3,2.4,1.7S174.9,107.7,176,107.7z"></path> <path class="st0" d="M202,110.3h-2.6v-2.1h-0.1c-0.3,0.7-0.9,1.3-1.7,1.8c-0.8,0.4-1.7,0.7-2.8,0.7c-0.7,0-1.3-0.1-1.9-0.3 c-0.6-0.2-1.1-0.5-1.6-0.9c-0.4-0.4-0.8-1-1.1-1.6c-0.3-0.7-0.4-1.4-0.4-2.3v-8.7h2.6v8c0,0.6,0.1,1.2,0.3,1.6 c0.2,0.4,0.4,0.8,0.7,1.1c0.3,0.3,0.6,0.5,1,0.6c0.4,0.1,0.8,0.2,1.2,0.2c0.5,0,1-0.1,1.5-0.3c0.5-0.2,0.9-0.4,1.2-0.8 c0.3-0.4,0.6-0.8,0.8-1.4s0.3-1.2,0.3-2v-7h2.6V110.3z"></path> <path class="st0" d="M207.8,104.4c0,0.6,0.1,1.1,0.4,1.6c0.3,0.5,0.6,0.9,1,1.2c0.4,0.3,0.9,0.6,1.5,0.8s1.1,0.3,1.7,0.3 c0.8,0,1.5-0.2,2.1-0.6s1.1-0.9,1.6-1.5l1.9,1.5c-1.4,1.8-3.4,2.8-6,2.8c-1.1,0-2-0.2-2.9-0.5c-0.9-0.4-1.6-0.9-2.2-1.5 c-0.6-0.6-1.1-1.4-1.4-2.3c-0.3-0.9-0.5-1.8-0.5-2.8c0-1,0.2-1.9,0.5-2.8c0.4-0.9,0.8-1.6,1.5-2.3c0.6-0.6,1.4-1.1,2.2-1.5 c0.9-0.4,1.8-0.5,2.8-0.5c1.2,0,2.2,0.2,3,0.6c0.8,0.4,1.5,1,2,1.6c0.5,0.7,0.9,1.4,1.2,2.3c0.2,0.8,0.4,1.7,0.4,2.6v0.9H207.8z M215.9,102.4c0-0.6-0.1-1.1-0.3-1.6c-0.2-0.5-0.4-0.9-0.7-1.2s-0.7-0.6-1.2-0.8c-0.5-0.2-1.1-0.3-1.7-0.3c-0.6,0-1.2,0.1-1.7,0.4 c-0.5,0.2-1,0.5-1.3,0.9c-0.4,0.4-0.6,0.8-0.8,1.3c-0.2,0.5-0.3,0.9-0.3,1.4H215.9z M213,90h3.7l-4.3,4.1H210L213,90z"></path> <path class="st0" d="M221.8,88.7h2.6v10h0.1c0.5-0.7,1.1-1.3,2-1.7s1.8-0.6,2.7-0.6c1,0,2,0.2,2.8,0.5c0.8,0.4,1.6,0.9,2.2,1.5 c0.6,0.6,1.1,1.4,1.4,2.3c0.3,0.9,0.5,1.8,0.5,2.8c0,1-0.2,1.9-0.5,2.8c-0.3,0.9-0.8,1.6-1.4,2.3c-0.6,0.6-1.3,1.2-2.2,1.5 c-0.8,0.4-1.8,0.5-2.8,0.5c-0.9,0-1.8-0.2-2.7-0.6c-0.9-0.4-1.5-1-2-1.7h-0.1v1.9h-2.6V88.7z M228.8,108.2c0.7,0,1.3-0.1,1.9-0.4 c0.6-0.2,1-0.6,1.4-1c0.4-0.4,0.7-0.9,0.9-1.5c0.2-0.6,0.3-1.2,0.3-1.9c0-0.7-0.1-1.3-0.3-1.9c-0.2-0.6-0.5-1.1-0.9-1.5 c-0.4-0.4-0.8-0.7-1.4-1c-0.6-0.2-1.2-0.4-1.9-0.4c-0.7,0-1.3,0.1-1.9,0.4c-0.6,0.2-1,0.6-1.4,1c-0.4,0.4-0.7,0.9-0.9,1.5 c-0.2,0.6-0.3,1.2-0.3,1.9c0,0.7,0.1,1.3,0.3,1.9c0.2,0.6,0.5,1.1,0.9,1.5c0.4,0.4,0.8,0.7,1.4,1 C227.5,108.1,228.1,108.2,228.8,108.2z"></path> <path class="st0" d="M241.2,104.4c0,0.6,0.1,1.1,0.4,1.6c0.3,0.5,0.6,0.9,1,1.2c0.4,0.3,0.9,0.6,1.5,0.8s1.1,0.3,1.7,0.3 c0.8,0,1.5-0.2,2.1-0.6s1.1-0.9,1.6-1.5l1.9,1.5c-1.4,1.8-3.4,2.8-6,2.8c-1.1,0-2-0.2-2.9-0.5c-0.9-0.4-1.6-0.9-2.2-1.5 c-0.6-0.6-1.1-1.4-1.4-2.3c-0.3-0.9-0.5-1.8-0.5-2.8c0-1,0.2-1.9,0.5-2.8c0.4-0.9,0.8-1.6,1.5-2.3c0.6-0.6,1.4-1.1,2.2-1.5 c0.9-0.4,1.8-0.5,2.8-0.5c1.2,0,2.2,0.2,3,0.6c0.8,0.4,1.5,1,2,1.6c0.5,0.7,0.9,1.4,1.2,2.3c0.2,0.8,0.4,1.7,0.4,2.6v0.9H241.2z M249.3,102.4c0-0.6-0.1-1.1-0.3-1.6c-0.2-0.5-0.4-0.9-0.7-1.2s-0.7-0.6-1.2-0.8c-0.5-0.2-1.1-0.3-1.7-0.3c-0.6,0-1.2,0.1-1.7,0.4 c-0.5,0.2-1,0.5-1.3,0.9c-0.4,0.4-0.6,0.8-0.8,1.3c-0.2,0.5-0.3,0.9-0.3,1.4H249.3z"></path> <path class="st0" d="M264.8,100.3c-0.5-0.5-1-0.9-1.5-1.1c-0.5-0.3-1.1-0.4-1.9-0.4c-0.7,0-1.3,0.1-1.8,0.4c-0.5,0.3-1,0.6-1.3,1.1 s-0.6,1-0.8,1.5c-0.2,0.6-0.3,1.2-0.3,1.8c0,0.6,0.1,1.2,0.3,1.8c0.2,0.6,0.5,1.1,0.9,1.5s0.8,0.7,1.4,1c0.5,0.2,1.1,0.4,1.8,0.4 c0.7,0,1.3-0.1,1.9-0.4c0.5-0.3,1-0.6,1.4-1.1l1.8,1.8c-0.7,0.7-1.4,1.3-2.3,1.6c-0.9,0.3-1.8,0.5-2.8,0.5c-1,0-2-0.2-2.9-0.5 c-0.9-0.3-1.6-0.8-2.2-1.4c-0.6-0.6-1.1-1.4-1.5-2.2c-0.3-0.9-0.5-1.8-0.5-2.9c0-1,0.2-2,0.5-2.9c0.3-0.9,0.8-1.6,1.4-2.3 c0.6-0.6,1.4-1.1,2.2-1.5c0.9-0.4,1.8-0.5,2.9-0.5c1,0,1.9,0.2,2.8,0.5c0.9,0.4,1.7,0.9,2.4,1.6L264.8,100.3z"></path> </g> <g> <path class="st1" d="M111.9,125.7c-13.8-14.2-28.2-30.5-40.3-46.2c12.6-19.1,26.4-46,5.6-62.3C76.8,8.8,68.1,0,56.3,0 c-11.8,0-20.5,8.8-21,17.2C17,31.6,24.5,55.5,40.6,79.5c-12.6,16.1-26.7,32.5-40,46.2c-0.5,0.4-0.8,1.1-0.5,1.7 c0.3,0.6,0.8,1.3,1.3,1.5l19.7,8.4c0.3,0.2,0.8,0.2,1,0.2c0.8,0,1.5-0.2,2.1-0.9c10-10.7,21.5-23.4,31.8-36.1 c10.8,13.1,22.3,25.6,32.1,36.1c0.5,0.4,1.3,0.9,2.1,0.9c0.5,0,0.8,0,1-0.2l20-8.4c0.8-0.2,1.3-0.9,1.3-1.5 C112.4,126.8,112.4,126.2,111.9,125.7z M40.1,18.7c3.1-6.2,29.2-6.2,32.3,0c1.8,6.4-3.6,19.6-16.4,38.9 C44.7,40.2,38.1,25.8,40.1,18.7z M53.9,63.3L53.9,63.3L53.7,63C53.7,63.1,53.8,63.2,53.9,63.3z"></path> </g> </svg> 